[Header]
FileType HTR
DataType HTRS
FileVersion 1
NumSegments 64
NumFrames 4
DataFrameRate 30
EulerRotationOrder ZYX
CalibrationUnits mm
RotationUnits Degrees
GlobalAxisofGravity Y
BoneLengthAxis Y
ScaleFactor 1.0
[SegmentNames&Hierarchy]
Hips	GLOBAL
Spine	Hips
Spine1	Spine
Spine2	Spine1
Neck	Spine2
Head	Neck
LeftEye	Head
RightEye	Head
LeftShoulder	Spine2
LeftArm	LeftShoulder
LeftForeArm	LeftArm
LeftHand	LeftForeArm
LeftHandThumb1	LeftHand
LeftHandThumb2	LeftHandThumb1
LeftHandThumb3	LeftHandThumb2
LeftHandThumb4	LeftHandThumb3
LeftHandIndex1	LeftHand
LeftHandIndex2	LeftHandIndex1
LeftHandIndex3	LeftHandIndex2
LeftHandIndex4	LeftHandIndex3
LeftHandMiddle1	LeftHand
LeftHandMiddle2	LeftHandMiddle1
LeftHandMiddle3	LeftHandMiddle2
LeftHandMiddle4	LeftHandMiddle3
LeftHandRing1	LeftHand
LeftHandRing2	LeftHandRing1
LeftHandRing3	LeftHandRing2
LeftHandRing4	LeftHandRing3
LeftHandPinky1	LeftHand
LeftHandPinky2	LeftHandPinky1
LeftHandPinky3	LeftHandPinky2
LeftHandPinky4	LeftHandPinky3
RightShoulder	Spine2
RightArm	RightShoulder
RightForeArm	RightArm
RightHand	RightForeArm
RightHandPinky1	RightHand
RightHandPinky2	RightHandPinky1
RightHandPinky3	RightHandPinky2
RightHandPinky4	RightHandPinky3
RightHandRing1	RightHand
RightHandRing2	RightHandRing1
RightHandRing3	RightHandRing2
RightHandRing4	RightHandRing3
RightHandMiddle1	RightHand
RightHandMiddle2	RightHandMiddle1
RightHandMiddle3	RightHandMiddle2
RightHandMiddle4	RightHandMiddle3
RightHandIndex1	RightHand
RightHandIndex2	RightHandIndex1
RightHandIndex3	RightHandIndex2
RightHandIndex4	RightHandIndex3
RightHandThumb1	RightHand
RightHandThumb2	RightHandThumb1
RightHandThumb3	RightHandThumb2
RightHandThumb4	RightHandThumb3
LeftUpLeg	Hips
LeftLeg	LeftUpLeg
LeftFoot	LeftLeg
LeftToeBase	LeftFoot
RightUpLeg	Hips
RightLeg	RightUpLeg
RightFoot	RightLeg
RightToeBase	RightFoot
[BasePosition]
Hips	0	0	0	0	0	0	1
Spine	0	0	0	0	0	0	1
Spine1	0	0	0	0	0	0	1
Spine2	0	0	0	0	0	0	1
Neck	0	0	0	0	0	0	1
Head	0	0	0	0	0	0	1
LeftEye	0	0	0	0	0	0	1
RightEye	0	0	0	0	0	0	1
LeftShoulder	0	0	0	0	0	0	1
LeftArm	0	0	0	0	0	0	1
LeftForeArm	0	0	0	0	0	0	1
LeftHand	0	0	0	0	0	0	1
LeftHandThumb1	0	0	0	0	0	0	1
LeftHandThumb2	0	0	0	0	0	0	1
LeftHandThumb3	0	0	0	0	0	0	1
LeftHandThumb4	0	0	0	0	0	0	1
LeftHandIndex1	0	0	0	0	0	0	1
LeftHandIndex2	0	0	0	0	0	0	1
LeftHandIndex3	0	0	0	0	0	0	1
LeftHandIndex4	0	0	0	0	0	0	1
LeftHandMiddle1	0	0	0	0	0	0	1
LeftHandMiddle2	0	0	0	0	0	0	1
LeftHandMiddle3	0	0	0	0	0	0	1
LeftHandMiddle4	0	0	0	0	0	0	1
LeftHandRing1	0	0	0	0	0	0	1
LeftHandRing2	0	0	0	0	0	0	1
LeftHandRing3	0	0	0	0	0	0	1
LeftHandRing4	0	0	0	0	0	0	1
LeftHandPinky1	0	0	0	0	0	0	1
LeftHandPinky2	0	0	0	0	0	0	1
LeftHandPinky3	0	0	0	0	0	0	1
LeftHandPinky4	0	0	0	0	0	0	1
RightShoulder	0	0	0	0	0	0	1
RightArm	0	0	0	0	0	0	1
RightForeArm	0	0	0	0	0	0	1
RightHand	0	0	0	0	0	0	1
RightHandPinky1	0	0	0	0	0	0	1
RightHandPinky2	0	0	0	0	0	0	1
RightHandPinky3	0	0	0	0	0	0	1
RightHandPinky4	0	0	0	0	0	0	1
RightHandRing1	0	0	0	0	0	0	1
RightHandRing2	0	0	0	0	0	0	1
RightHandRing3	0	0	0	0	0	0	1
RightHandRing4	0	0	0	0	0	0	1
RightHandMiddle1	0	0	0	0	0	0	1
RightHandMiddle2	0	0	0	0	0	0	1
RightHandMiddle3	0	0	0	0	0	0	1
RightHandMiddle4	0	0	0	0	0	0	1
RightHandIndex1	0	0	0	0	0	0	1
RightHandIndex2	0	0	0	0	0	0	1
RightHandIndex3	0	0	0	0	0	0	1
RightHandIndex4	0	0	0	0	0	0	1
RightHandThumb1	0	0	0	0	0	0	1
RightHandThumb2	0	0	0	0	0	0	1
RightHandThumb3	0	0	0	0	0	0	1
RightHandThumb4	0	0	0	0	0	0	1
LeftUpLeg	0	0	0	0	0	0	1
LeftLeg	0	0	0	0	0	0	1
LeftFoot	0	0	0	0	0	0	1
LeftToeBase	0	0	0	0	0	0	1
RightUpLeg	0	0	0	0	0	0	1
RightLeg	0	0	0	0	0	0	1
RightFoot	0	0	0	0	0	0	1
RightToeBase	0	0	0	0	0	0	1
[Hips]
627	153.1590271	978.2407227	-198.5447388	169.589447	228.522171	-536.7021484	1.0
628	130.5068512	986.5565186	-210.7341309	173.4981537	230.5919952	-540.7662964	1.0
629	105.4382706	985.7817383	-225.1854706	177.8200684	232.4526672	-544.7245483	1.0
630	79.8655014	975.4049683	-241.7165222	181.8260803	233.9747467	-548.0995483	1.0
[Spine]
627	0	101.8159943	1.315000057	23.15534782	-3.021647453	-9.346783638	1.0
628	0	101.8159943	1.315000057	20.55928993	-3.978486538	-9.634110451	1.0
629	0	101.8159943	1.315000057	17.09688759	-5.246049881	-10.79041481	1.0
630	0	101.8159943	1.315000057	13.64863014	-7.166295528	-12.85655022	1.0
[Spine1]
627	0	100.8349991	-10.00800037	-1.325511813	-0.6787942052	1.020691156	1.0
628	0	100.8349991	-10.00800037	-1.459686875	-0.8765833974	2.782402992	1.0
629	0	100.8349991	-10.00800037	-1.317745805	-1.086061835	4.848978043	1.0
630	0	100.8349991	-10.00800037	-0.9107503295	-1.368510842	7.054236412	1.0
[Spine2]
627	0	91	-13.73399925	-1.3051759	-0.6560260653	1.060347319	1.0
628	0	91	-13.73399925	-1.411698937	-0.7988393307	2.829535484	1.0
629	0	91	-13.73399925	-1.22162652	-0.9765319228	4.895103455	1.0
630	0	91	-13.73399925	-0.742685318	-1.252015114	7.092074394	1.0
[Neck]
627	0	166.7169952	-25.16200066	-11.70090389	5.410169125	-1.284333706	1.0
628	0	166.7169952	-25.16200066	-10.29901695	5.913395405	-0.9668262005	1.0
629	0	166.7169952	-25.16200066	-8.225811005	6.437159061	-0.5278308988	1.0
630	0	166.7169952	-25.16200066	-5.789644718	7.003045559	0.005427370779	1.0
[Head]
627	0	96.17900085	16.84999847	-26.96415138	28.62562752	5.877315998	1.0
628	0	96.17900085	16.84999847	-24.19856262	30.33218956	4.70205307	1.0
629	0	96.17900085	16.84999847	-21.68338776	32.25289154	3.62014699	1.0
630	0	96.17900085	16.84999847	-19.84136581	34.67082214	2.673660994	1.0
[LeftEye]
627	30.6760006	64.09500122	92.83599854	0	0	0	1.0
628	30.6760006	64.09500122	92.83599854	0	0	0	1.0
629	30.6760006	64.09500122	92.83599854	0	0	0	1.0
630	30.6760006	64.09500122	92.83599854	0	0	0	1.0
[RightEye]
627	-30.6760006	64.09500122	92.83499908	0	0	0	1.0
628	-30.6760006	64.09500122	92.83499908	0	0	0	1.0
629	-30.6760006	64.09500122	92.83499908	0	0	0	1.0
630	-30.6760006	64.09500122	92.83499908	0	0	0	1.0
[LeftShoulder]
627	45.70400238	109.4599991	-26.28000069	1.537775874	-2.270934343	-20.20017624	1.0
628	45.70400238	109.4599991	-26.28000069	1.572961569	-3.455213547	-15.89153099	1.0
629	45.70400238	109.4599991	-26.28000069	1.581461191	-4.487046242	-12.72452831	1.0
630	45.70400238	109.4599991	-26.28000069	1.524136305	-5.117194176	-10.41558456	1.0
[LeftArm]
627	105.923996	-5.24600029	-22.32099915	19.5324192	-24.47410202	-4.264356136	1.0
628	105.923996	-5.24600029	-22.32099915	8.85840416	-23.15404129	4.194514751	1.0
629	105.923996	-5.24600029	-22.32099915	-5.461759567	-18.95703697	11.86804008	1.0
630	105.923996	-5.24600029	-22.32099915	-19.20299911	-14.03064919	18.44211197	1.0
[LeftForeArm]
627	278.414978	-0.0009999999311	0	1.188526085e-06	-16.1244297	-0.0002092438663	1.0
628	278.414978	-0.0009999999311	0	4.496975521e-07	-21.78840256	-0.0002059437538	1.0
629	278.414978	-0.0009999999311	0	9.311469285e-07	-27.8129158	-0.0002032378106	1.0
630	278.414978	-0.0009999999311	0	4.125205351e-07	-31.43305206	-0.0002046961017	1.0
[LeftHand]
627	283.2879944	0	0	-27.96127129	8.51897049	4.859244823	1.0
628	283.2879944	0	0	-18.32406998	8.955421448	11.46265125	1.0
629	283.2879944	0	0	-10.01036167	8.638420105	17.81938553	1.0
630	283.2879944	0	0	-2.917052031	6.54240036	23.5789299	1.0
[LeftHandThumb1]
627	24.6609993	-15.75	26.8239994	1.18744719	8.499809265	6.603605747	1.0
628	24.6609993	-15.75	26.8239994	1.165276647	6.639805794	4.43858242	1.0
629	24.6609993	-15.75	26.8239994	0.7209324837	4.804254055	3.189491987	1.0
630	24.6609993	-15.75	26.8239994	-0.1999463141	3.398755312	3.368153334	1.0
[LeftHandThumb2]
627	32.29800034	-18.64699936	18.64699936	1.235370517	-0.2926853597	-0.8609745502	1.0
628	32.29800034	-18.64699936	18.64699936	1.25023818	-0.253682822	-0.8779506087	1.0
629	32.29800034	-18.64699936	18.64699936	1.234915257	-0.2419479042	-0.9549710751	1.0
630	32.29800034	-18.64699936	18.64699936	1.241374135	-0.1635504812	-1.013855815	1.0
[LeftHandThumb3]
627	26.52600098	-15.31499958	15.31499958	-4.388747692	-4.380795479	3.824905634	1.0
628	26.52600098	-15.31499958	15.31499958	-4.44265461	-4.698580265	3.853582621	1.0
629	26.52600098	-15.31499958	15.31499958	-4.500441074	-4.879657745	3.867769241	1.0
630	26.52600098	-15.31499958	15.31499958	-4.581156254	-4.973506927	3.877103567	1.0
[LeftHandThumb4]
627	19.54599953	-11.28499985	11.28499985	0	0	0	1.0
628	19.54599953	-11.28499985	11.28499985	0	0	0	1.0
629	19.54599953	-11.28499985	11.28499985	0	0	0	1.0
630	19.54599953	-11.28499985	11.28499985	0	0	0	1.0
[LeftHandIndex1]
627	91.09299469	-5.170999527	22.60099792	-0.1322297156	-5.278644562	11.88398266	1.0
628	91.09299469	-5.170999527	22.60099792	-0.1207956076	-6.878546238	12.06793213	1.0
629	91.09299469	-5.170999527	22.60099792	-0.1587583274	-8.085111618	13.86647892	1.0
630	91.09299469	-5.170999527	22.60099792	-0.2612049878	-8.868760109	17.16176605	1.0
[LeftHandIndex2]
627	36.76399994	0	0	-0.002139491262	0.1606163979	-1.3361094	1.0
628	36.76399994	0	0	3.073866174e-05	0.03379446641	-0.2811120749	1.0
629	36.76399994	0	0	7.117613131e-05	-0.007773872465	0.06457658857	1.0
630	36.76399994	0	0	-3.431778623e-06	-6.836747343e-05	0.0006010158686	1.0
[LeftHandIndex3]
627	28.83100128	0	0	-0.1142039299	1.249072552	-10.44906998	1.0
628	28.83100128	0	0	-0.09883382916	1.162832618	-9.720103264	1.0
629	28.83100128	0	0	-0.08138509095	1.055419683	-8.814637184	1.0
630	28.83100128	0	0	-0.06256005913	0.925498426	-7.722361565	1.0
[LeftHandIndex4]
627	23.92700005	0	0	0	0	0	1.0
628	23.92700005	0	0	0	0	0	1.0
629	23.92700005	0	0	0	0	0	1.0
630	23.92700005	0	0	0	0	0	1.0
[LeftHandMiddle1]
627	95.33399963	0	0	-0.008459413424	1.288657188	3.501408577	1.0
628	95.33399963	0	0	-0.03210133314	0.8070563078	5.807044506	1.0
629	95.33399963	0	0	-0.08538553119	0.2837706208	9.128026962	1.0
630	95.33399963	0	0	-0.1811135858	-0.2687918544	13.21561146	1.0
[LeftHandMiddle2]
627	36.98199844	0	0	-5.628605504e-05	0.01529133227	-0.1277624816	1.0
628	36.98199844	0	0	5.445363786e-05	-0.0059875804	0.04920086265	1.0
629	36.98199844	0	0	-5.901666782e-07	-6.027330164e-05	-3.609884152e-05	1.0
630	36.98199844	0	0	-1.644420081e-06	-6.338669482e-05	4.050518328e-06	1.0
[LeftHandMiddle3]
627	29.50900078	0	0	-0.07003400475	0.9795846343	-8.176661491	1.0
628	29.50900078	0	0	-0.05963772535	0.9043117166	-7.544448853	1.0
629	29.50900078	0	0	-0.05092397332	0.8362531662	-6.97356987	1.0
630	29.50900078	0	0	-0.04327318445	0.7707837224	-6.425160408	1.0
[LeftHandMiddle4]
627	28.3390007	0	0	0	0	0	1.0
628	28.3390007	0	0	0	0	0	1.0
629	28.3390007	0	0	0	0	0	1.0
630	28.3390007	0	0	0	0	0	1.0
[LeftHandRing1]
627	91.04499817	-0.4390000105	-18.65100098	0.02131800726	7.521787643	-5.097753048	1.0
628	91.04499817	-0.4390000105	-18.65100098	0.06237893179	7.9890728	-0.7649175525	1.0
629	91.04499817	-0.4390000105	-18.65100098	0.05657183751	8.03148365	4.123814106	1.0
630	91.04499817	-0.4390000105	-18.65100098	-0.01025364548	7.624318123	9.185339928	1.0
[LeftHandRing2]
627	31.54000092	0	0	-0.00445642136	0.2428872287	-2.020764112	1.0
628	31.54000092	0	0	-0.0004786918289	0.06175968796	-0.5136936307	1.0
629	31.54000092	0	0	0.0002008764131	-0.01377951168	0.114550747	1.0
630	31.54000092	0	0	2.589999667e-06	-3.221377847e-05	0.0001915714238	1.0
[LeftHandRing3]
627	29.37700081	0	0	-0.2727716565	1.920122385	-16.19142342	1.0
628	29.37700081	0	0	-0.1853722036	1.579747796	-13.26501274	1.0
629	29.37700081	0	0	-0.1207479313	1.287891507	-10.77619553	1.0
630	29.37700081	0	0	-0.08793195337	1.097993374	-9.172919273	1.0
[LeftHandRing4]
627	26.47500038	0	0	0	0	0	1.0
628	26.47500038	0	0	0	0	0	1.0
629	26.47500038	0	0	0	0	0	1.0
630	26.47500038	0	0	0	0	0	1.0
[LeftHandPinky1]
627	80.77799988	-4.887000084	-38.06099701	0.2309246659	19.37869072	-10.56437874	1.0
628	80.77799988	-4.887000084	-38.06099701	0.4502765834	20.94290733	-3.037052155	1.0
629	80.77799988	-4.887000084	-38.06099701	0.5174564719	21.56540298	4.807340145	1.0
630	80.77799988	-4.887000084	-38.06099701	0.4056270123	21.20088387	12.30311298	1.0
[LeftHandPinky2]
627	36	0	0	0.01656847261	-4.057005882	-0.4884722829	1.0
628	36	0	0	0.01702055894	-4.056203842	-0.4949325025	1.0
629	36	0	0	0.01779604517	-4.054861069	-0.5060291886	1.0
630	36	0	0	0.01804600097	-4.054447174	-0.5096335411	1.0
[LeftHandPinky3]
627	21.14200211	0	0	-0.1936769933	1.623607516	-13.63613319	1.0
628	21.14200211	0	0	-0.1424406171	1.391233444	-11.65571404	1.0
629	21.14200211	0	0	-0.0873702243	1.087958217	-9.089713097	1.0
630	21.14200211	0	0	-0.04835193977	0.8194458485	-6.831973553	1.0
[LeftHandPinky4]
627	19.75699997	0	0	0	0	0	1.0
628	19.75699997	0	0	0	0	0	1.0
629	19.75699997	0	0	0	0	0	1.0
630	19.75699997	0	0	0	0	0	1.0
[RightShoulder]
627	-45.70000076	109.4620056	-26.28000069	-0.1686333716	-1.546877861	-19.64797211	1.0
628	-45.70000076	109.4620056	-26.28000069	-0.0537122041	-1.297633529	-12.32007504	1.0
629	-45.70000076	109.4620056	-26.28000069	0.07847596705	-1.222714782	-5.694317341	1.0
630	-45.70000076	109.4620056	-26.28000069	0.1918543875	-1.168326855	-0.2930958867	1.0
[RightArm]
627	-105.9280014	-5.248000145	-22.32099915	-65.61817932	-9.921766281	24.47893906	1.0
628	-105.9280014	-5.248000145	-22.32099915	-60.49303818	-12.1493988	26.20475388	1.0
629	-105.9280014	-5.248000145	-22.32099915	-54.18450928	-14.20205784	27.65666008	1.0
630	-105.9280014	-5.248000145	-22.32099915	-47.17913055	-15.96717834	29.9181881	1.0
[RightForeArm]
627	-278.414978	0	0	6.575727457e-05	83.11752319	4.504444587e-05	1.0
628	-278.414978	0	0	4.246531898e-05	82.18530273	4.794510096e-05	1.0
629	-278.414978	0	0	3.260746553e-06	79.20516968	1.266005256e-05	1.0
630	-278.414978	0	0	-9.73535316e-06	75.19280243	-2.220797796e-05	1.0
[RightHand]
627	-283.2879944	0	0.0009999999311	13.03678799	12.06036186	-26.9205513	1.0
628	-283.2879944	0	0.0009999999311	12.24971962	12.14157009	-28.25177193	1.0
629	-283.2879944	0	0.0009999999311	12.01045132	13.44700909	-29.96893311	1.0
630	-283.2879944	0	0.0009999999311	12.28817368	14.88739204	-31.14238739	1.0
[RightHandPinky1]
627	-80.76699829	-4.885000229	-38.06000137	-0.758595407	-8.349476814	-29.31493568	1.0
628	-80.76699829	-4.885000229	-38.06000137	-0.7936321497	-7.627693653	-29.60023117	1.0
629	-80.76699829	-4.885000229	-38.06000137	-0.7494581342	-7.344938278	-28.72695351	1.0
630	-80.76699829	-4.885000229	-38.06000137	-0.6471381783	-7.475953579	-26.92637825	1.0
[RightHandPinky2]
627	-36	0	0.0009999999311	-0.0006536457804	-0.1190815642	0.9939325452	1.0
628	-36	0	0.0009999999311	-0.0007076445618	-0.1040122658	0.8699271083	1.0
629	-36	0	0.0009999999311	-0.001385425683	-0.1384511143	1.153693914	1.0
630	-36	0	0.0009999999311	-0.003587003332	-0.2198914587	1.8248595	1.0
[RightHandPinky3]
627	-21.14200211	0	0	-0.00183157844	-0.1590498835	1.310299397	1.0
628	-21.14200211	0	0	-0.00177252735	-0.1628878862	1.341907978	1.0
629	-21.14200211	0	0	-0.0006390352501	-0.09085948765	0.7485407591	1.0
630	-21.14200211	0	0	-0.0003028455249	0.04248544574	-0.349922359	1.0
[RightHandPinky4]
627	-19.75699997	0	0	0	0	0	1.0
628	-19.75699997	0	0	0	0	0	1.0
629	-19.75699997	0	0	0	0	0	1.0
630	-19.75699997	0	0	0	0	0	1.0
[RightHandRing1]
627	-91.03599548	-0.4390000105	-18.65100098	-0.667941153	-2.639713526	-25.94041443	1.0
628	-91.03599548	-0.4390000105	-18.65100098	-0.7153220773	-1.951249003	-26.67887878	1.0
629	-91.03599548	-0.4390000105	-18.65100098	-0.7031654716	-1.530087709	-26.36676979	1.0
630	-91.03599548	-0.4390000105	-18.65100098	-0.6521635652	-1.356779933	-25.35606384	1.0
[RightHandRing2]
627	-31.54000092	0	0	-1.052522066e-06	-2.735569979e-06	3.209698843e-05	1.0
628	-31.54000092	0	0	-8.934597417e-07	-2.491234227e-06	3.052692773e-05	1.0
629	-31.54000092	0	0	-7.797864328e-07	-2.178013347e-06	2.530922939e-05	1.0
630	-31.54000092	0	0	3.928022068e-07	-2.24821656e-06	2.171943925e-05	1.0
[RightHandRing3]
627	-29.37700081	0	0	-0.902357161	0.1503828317	-1.238770127	1.0
628	-29.37700081	0	0	-0.9704650044	0.1923191249	-1.584387064	1.0
629	-29.37700081	0	0	-0.9523739219	0.2558220029	-2.108039141	1.0
630	-29.37700081	0	0	-0.876861155	0.3391305506	-2.795154572	1.0
[RightHandRing4]
627	-26.47500038	0	0	0	0	0	1.0
628	-26.47500038	0	0	0	0	0	1.0
629	-26.47500038	0	0	0	0	0	1.0
630	-26.47500038	0	0	0	0	0	1.0
[RightHandMiddle1]
627	-95.32500458	0	0	-0.8304309845	2.455785036	-28.3347702	1.0
628	-95.32500458	0	0	-0.9219841361	3.283643723	-29.87140656	1.0
629	-95.32500458	0	0	-0.9351138473	3.946109772	-30.07170486	1.0
630	-95.32500458	0	0	-0.9035711288	4.465650082	-29.55548477	1.0
[RightHandMiddle2]
627	-36.98199844	0	0	8.250001883e-06	0.001599016134	-0.0131636709	1.0
628	-36.98199844	0	0	-9.318812317e-07	-4.066208476e-06	4.423056816e-05	1.0
629	-36.98199844	0	0	2.670013259e-07	-2.71154795e-06	2.752193177e-05	1.0
630	-36.98199844	0	0	3.820175039e-07	-1.851339334e-06	1.799582606e-05	1.0
[RightHandMiddle3]
627	-29.50900078	0	0	-0.1829907894	0.2241500765	-1.863126874	1.0
628	-29.50900078	0	0	-0.2474756539	0.3270820081	-2.71194768	1.0
629	-29.50900078	0	0	-0.2300994992	0.4100445807	-3.396579266	1.0
630	-29.50900078	0	0	-0.1555854976	0.4800004959	-3.974187851	1.0
[RightHandMiddle4]
627	-28.3390007	0	0.0009999999311	0	0	0	1.0
628	-28.3390007	0	0.0009999999311	0	0	0	1.0
629	-28.3390007	0	0.0009999999311	0	0	0	1.0
630	-28.3390007	0	0.0009999999311	0	0	0	1.0
[RightHandIndex1]
627	-91.08300018	-5.167999744	22.60099792	-0.8940621018	7.157714367	-29.61517715	1.0
628	-91.08300018	-5.167999744	22.60099792	-1.048226118	8.302670479	-32.21660995	1.0
629	-91.08300018	-5.167999744	22.60099792	-1.093212247	9.354726791	-33.00037003	1.0
630	-91.08300018	-5.167999744	22.60099792	-1.080237031	10.34167862	-32.95811844	1.0
[RightHandIndex2]
627	-36.76399994	0	0	-0.0009899513097	-0.06186491996	0.5094965696	1.0
628	-36.76399994	0	0	0.0006250953884	0.01741703227	-0.1435757577	1.0
629	-36.76399994	0	0	8.319294693e-07	0.0005167619674	-0.004257669672	1.0
630	-36.76399994	0	0	2.244170219e-06	7.051535067e-05	-0.0005849337904	1.0
[RightHandIndex3]
627	-28.83100128	0	0	-0.001922507887	0.1583288163	-1.304360271	1.0
628	-28.83100128	0	0	-0.006176437717	0.2932704985	-2.416569233	1.0
629	-28.83100128	0	0	-0.01143660862	0.3992531896	-3.290724993	1.0
630	-28.83100128	0	0	-0.01654247381	0.4798512459	-3.956032753	1.0
[RightHandIndex4]
627	-23.92700005	0	0	0	0	0	1.0
628	-23.92700005	0	0	0	0	0	1.0
629	-23.92700005	0	0	0	0	0	1.0
630	-23.92700005	0	0	0	0	0	1.0
[RightHandThumb1]
627	-24.64799881	-15.72700024	26.82600021	3.028385162	-14.82144642	-20.0438385	1.0
628	-24.64799881	-15.72700024	26.82600021	2.144458055	-14.16062355	-19.78052711	1.0
629	-24.64799881	-15.72700024	26.82600021	1.338286996	-13.48786354	-19.38412666	1.0
630	-24.64799881	-15.72700024	26.82600021	0.617372334	-12.89394951	-19.12333298	1.0
[RightHandThumb2]
627	-32.29800034	-18.64699936	18.64699936	2.082574606	0.4587647021	1.295481682	1.0
628	-32.29800034	-18.64699936	18.64699936	2.086596012	0.4173598886	1.449634314	1.0
629	-32.29800034	-18.64699936	18.64699936	2.071835995	0.3728444576	1.596824765	1.0
630	-32.29800034	-18.64699936	18.64699936	2.071670771	0.2453835011	1.664481521	1.0
[RightHandThumb3]
627	-26.52600098	-15.31399918	15.31399918	-5.741122246	7.13449192	-3.564757586	1.0
628	-26.52600098	-15.31399918	15.31399918	-5.709531784	7.017626762	-3.587135792	1.0
629	-26.52600098	-15.31399918	15.31399918	-5.584424019	6.765325069	-3.571707726	1.0
630	-26.52600098	-15.31399918	15.31399918	-5.426156044	6.478542328	-3.538369417	1.0
[RightHandThumb4]
627	-19.54599953	-11.28499985	11.28499985	0	0	0	1.0
628	-19.54599953	-11.28499985	11.28499985	0	0	0	1.0
629	-19.54599953	-11.28499985	11.28499985	0	0	0	1.0
630	-19.54599953	-11.28499985	11.28499985	0	0	0	1.0
[LeftUpLeg]
627	82.07800293	-67.51699829	-15.99599934	-3.612608194	8.93128109	4.514137268	1.0
628	82.07800293	-67.51699829	-15.99599934	-2.138137817	10.75602818	9.298377991	1.0
629	82.07800293	-67.51699829	-15.99599934	-2.003567457	12.82616043	14.69488144	1.0
630	82.07800293	-67.51699829	-15.99599934	-3.099586725	14.24841022	19.60665321	1.0
[LeftLeg]
627	0	-443.7049866	2.845999956	35.96094513	10.74651146	-5.566715717	1.0
628	0	-443.7049866	2.845999956	33.52177429	9.201900482	-6.523346901	1.0
629	0	-443.7049866	2.845999956	34.48966599	9.178265572	-5.942829609	1.0
630	0	-443.7049866	2.845999956	38.30091095	8.805198669	-3.647313833	1.0
[LeftFoot]
627	0	-444.2789917	-29.8219986	-26.91888428	27.42577744	-10.55068207	1.0
628	0	-444.2789917	-29.8219986	-26.07340813	27.53037834	-11.69165516	1.0
629	0	-444.2789917	-29.8219986	-24.43375778	21.72146797	-12.7942667	1.0
630	0	-444.2789917	-29.8219986	-22.68786621	10.88532066	-13.55245399	1.0
[LeftToeBase]
627	0	-87.28699493	107.1060028	-0.8182278275	-3.289705091e-06	-2.169451363e-06	1.0
628	0	-87.28699493	107.1060028	-1.230278134	-3.240929118e-06	-5.493136541e-07	1.0
629	0	-87.28699493	107.1060028	-3.100940943	-1.87990247e-06	3.158027084e-06	1.0
630	0	-87.28699493	107.1060028	-5.590766907	-9.925944369e-07	5.033858997e-06	1.0
[RightUpLeg]
627	-82.07800293	-67.51699829	-15.99599934	-26.55104637	-4.812343597	-10.83382225	1.0
628	-82.07800293	-67.51699829	-15.99599934	-21.93403053	-2.850502491	-9.411725044	1.0
629	-82.07800293	-67.51699829	-15.99599934	-17.05307961	-0.2398007065	-7.984614849	1.0
630	-82.07800293	-67.51699829	-15.99599934	-14.05151176	3.536535978	-7.052533627	1.0
[RightLeg]
627	0	-443.7049866	2.861999989	47.53180313	-9.414966583	-4.95876503	1.0
628	0	-443.7049866	2.861999989	45.03990173	-7.268460751	-7.418374062	1.0
629	0	-443.7049866	2.861999989	39.91789246	-4.275411606	-7.77683115	1.0
630	0	-443.7049866	2.861999989	35.98186493	-2.687273026	-5.173432827	1.0
[RightFoot]
627	0	-444.2770081	-29.83799934	-6.281493187	-18.04792595	1.880600929	1.0
628	0	-444.2770081	-29.83799934	-4.493103027	-13.03015327	2.275607824	1.0
629	0	-444.2770081	-29.83799934	-5.779543877	-5.789394379	10.58945847	1.0
630	0	-444.2770081	-29.83799934	-11.66599369	-0.4614413977	20.81571579	1.0
[RightToeBase]
627	0	-87.28699493	107.1060028	5.788306713	0.01631502248	-0.2270837575	1.0
628	0	-87.28699493	107.1060028	3.657559872	-0.1809411943	2.634363651	1.0
629	0	-87.28699493	107.1060028	0.3484672606	-0.1597642004	1.546993613	1.0
630	0	-87.28699493	107.1060028	-0.6972211599	0.07421628386	-2.480111122	1.0
[EndOfFile]
